<svg display="none" xmlns="http://www.w3.org/2000/svg">
    <symbol id="pin" viewBox="0 0 512 512">
        <g>
		<path d="M256,0C153.755,0,70.573,83.182,70.573,185.426c0,126.888,165.939,313.167,173.004,321.035
			c6.636,7.391,18.222,7.378,24.846,0c7.065-7.868,173.004-194.147,173.004-321.035C441.425,83.182,358.244,0,256,0z M256,278.719
			c-51.442,0-93.292-41.851-93.292-93.293S204.559,92.134,256,92.134s93.291,41.851,93.291,93.293S307.441,278.719,256,278.719z"/>
	</g>
    </symbol>

    <symbol id="clock" viewBox="0 0 512 512">
        <g>
            <path d="m256 512c-141.164062 0-256-114.835938-256-256s114.835938-256 256-256 256 114.835938 256 256-114.835938 256-256 256zm0-480c-123.519531 0-224 100.480469-224 224s100.480469 224 224 224 224-100.480469 224-224-100.480469-224-224-224zm0 0"/>
            <path d="m368 394.667969c-4.097656 0-8.191406-1.558594-11.308594-4.695313l-112-112c-3.007812-3.007812-4.691406-7.082031-4.691406-11.304687v-149.335938c0-8.832031 7.167969-16 16-16s16 7.167969 16 16v142.699219l107.308594 107.308594c6.25 6.25 6.25 16.382812 0 22.632812-3.117188 3.136719-7.210938 4.695313-11.308594 4.695313zm0 0"/>
        </g> 
    </symbol>

    <symbol id="correct" viewBox="0 0 512 512">
        <g>
            <path d="m369.164062 174.769531c7.8125 7.8125 7.8125 20.476563 0 28.285157l-134.171874 134.175781c-7.8125 7.808593-20.472657 7.808593-28.285157 0l-63.871093-63.875c-7.8125-7.808594-7.8125-20.472657 0-28.28125 7.808593-7.8125 20.472656-7.8125 28.28125 0l49.730468 49.730469 120.03125-120.035157c7.8125-7.808593 20.476563-7.808593 28.285156 0zm142.835938 81.230469c0 141.503906-114.515625 256-256 256-141.503906 0-256-114.515625-256-256 0-141.503906 114.515625-256 256-256 141.503906 0 256 114.515625 256 256zm-40 0c0-119.394531-96.621094-216-216-216-119.394531 0-216 96.621094-216 216 0 119.394531 96.621094 216 216 216 119.394531 0 216-96.621094 216-216zm0 0"/>
        </g> 
    </symbol>

    <symbol id="tech" viewBox="0 0 512 512">
        <g>
          <path d="m470.382 332.749c-8.379-6.352-13.382-17.201-13.382-29.023v-95.451c0-11.822 5.003-22.672 13.382-29.024 26.449-20.051 41.618-50.565 41.618-83.717 0-40.055-22.346-76.06-58.316-93.963-4.316-2.146-9.398-2.092-13.664.152-4.267 2.242-7.194 6.398-7.871 11.171l-8.172 57.64h-33.953l-8.172-57.64c-.677-4.772-3.604-8.929-7.871-11.171-4.266-2.242-9.35-2.298-13.664-.152-35.971 17.904-58.317 53.908-58.317 93.963 0 33.152 15.169 63.666 41.618 83.717 8.379 6.352 13.382 17.201 13.382 29.023v95.451c0 11.822-5.003 22.672-13.382 29.024-26.449 20.051-41.618 50.564-41.618 83.717 0 40.055 22.346 76.06 58.316 93.963 4.315 2.145 9.397 2.091 13.664-.152 4.267-2.242 7.194-6.398 7.871-11.171l8.172-57.64h33.953l8.172 57.64c.677 4.772 3.604 8.929 7.871 11.171 2.184 1.148 4.581 1.724 6.98 1.724 2.288 0 4.578-.523 6.684-1.571 35.971-17.905 58.317-53.91 58.317-93.964 0-33.153-15.169-63.666-41.618-83.717zm-11.92 138.234-6.61-46.623c-1.049-7.396-7.381-12.895-14.852-12.895h-60c-7.471 0-13.803 5.498-14.852 12.895l-6.61 46.623c-14.86-13.927-23.538-33.439-23.538-54.517 0-23.681 10.84-45.48 29.741-59.81 15.817-11.989 25.259-31.776 25.259-52.93v-95.451c0-21.154-9.442-40.941-25.259-52.931-18.901-14.329-29.741-36.129-29.741-59.81 0-21.078 8.678-40.59 23.538-54.518l6.61 46.623c1.049 7.396 7.381 12.895 14.852 12.895h60c7.471 0 13.803-5.498 14.852-12.895l6.61-46.623c14.86 13.928 23.538 33.44 23.538 54.518 0 23.681-10.84 45.48-29.741 59.81-15.817 11.989-25.259 31.776-25.259 52.93v95.451c0 21.154 9.442 40.941 25.259 52.931 18.901 14.329 29.741 36.129 29.741 59.81 0 21.078-8.678 40.59-23.538 54.517z"/><path d="m180.427 391.361c18.089-15.599 29.573-38.657 29.573-64.361v-5h15c8.284 0 15-6.716 15-15s-6.716-15-15-15h-6.188c-6.435-40.393-38.419-72.377-78.812-78.812v-6.188c0-8.284-6.716-15-15-15s-15 6.716-15 15v6.188c-40.393 6.435-72.377 38.419-78.812 78.812h-6.188c-8.284 0-15 6.716-15 15s6.716 15 15 15h15v5c0 25.704 11.484 48.762 29.573 64.361-40.884 17.649-69.573 58.354-69.573 105.639 0 8.284 6.716 15 15 15h220c8.284 0 15-6.716 15-15 0-47.285-28.689-87.99-69.573-105.639zm-110.427-69.361h110v5c0 30.327-24.673 55-55 55s-55-24.673-55-55zm40-78.239v3.239c0 8.284 6.716 15 15 15s15-6.716 15-15v-3.239c23.815 5.648 42.607 24.423 48.253 48.239h-126.506c5.646-23.816 24.438-42.591 48.253-48.239zm-78.675 238.239c7.105-39.739 41.924-70 83.675-70h20c41.751 0 76.569 30.261 83.675 70z"/>
        </g> 
    </symbol>

    <symbol id="phone" viewBox="0 0 513.64 513.64">
        <g>
            <path d="M499.66,376.96l-71.68-71.68c-25.6-25.6-69.12-15.359-79.36,17.92c-7.68,23.041-33.28,35.841-56.32,30.72
                c-51.2-12.8-120.32-79.36-133.12-133.12c-7.68-23.041,7.68-48.641,30.72-56.32c33.28-10.24,43.52-53.76,17.92-79.36l-71.68-71.68
                c-20.48-17.92-51.2-17.92-69.12,0l-48.64,48.64c-48.64,51.2,5.12,186.88,125.44,307.2c120.32,120.32,256,176.641,307.2,125.44
                l48.64-48.64C517.581,425.6,517.581,394.88,499.66,376.96z"/>
	    </g> 
    </symbol>

    <symbol id="car" viewBox="0 0 581 468">
        <g>
			<path d="M85.44,261.093c-20.734,0-37.542,16.808-37.542,37.542s16.808,37.542,37.542,37.542
				c20.724-0.023,37.519-16.818,37.542-37.542C122.982,277.901,106.174,261.093,85.44,261.093z"/>
			<polygon points="360.94,336.177 360.939,336.177 360.939,336.177 			"/>
			<path d="M437.143,212.893l-41.844-19.1c-1.426-0.633-2.633-1.675-3.469-2.993L355.57,133
				c-6.753-10.781-18.618-17.283-31.339-17.174H176.88c-11.504-0.035-22.368,5.288-29.39,14.4l-46.631,61.09
				c-1.043,1.396-2.52,2.406-4.2,2.87l-77.934,21.326c-11.13,3.099-18.802,13.271-18.724,24.824v28.5
				c0,14.188,11.089,25.988,25.279,25.988h6.789c2.001-26.366,22.955-47.32,49.321-49.321c29.476-2.237,55.185,19.844,57.422,49.321
				h168.756c2.001-26.366,22.955-47.319,49.321-49.321c29.476-2.237,55.185,19.844,57.422,49.321h12.411
				c14.19,0,25.279-11.8,25.279-25.988v-32.534C452.081,226.256,446.267,217.096,437.143,212.893z"/>
			<path d="M360.94,261.093c-20.734,0-37.542,16.808-37.542,37.542c0,20.734,16.808,37.542,37.541,37.542
				c20.724-0.023,37.519-16.818,37.543-37.542C398.482,277.901,381.673,261.093,360.94,261.093z"/>
		</g>
    </symbol>

    <symbol id="furniture" viewBox="0 0 64 64">
        <g>
            <path d="m53 31a1 1 0 0 0 -1 1v10h-2v-16a1 1 0 0 0 -2 0v16h-2v-19a1 1 0 0 0 -2 0v19h-2v-16a1 1 0 0 0 -2 0v16h-2v-7a1 1 0 0 0 -2 0v11.82l2.94 7.83a1.03 1.03 0 0 1 .06.35v5h12v-5a1.03 1.03 0 0 1 .06-.35l2.94-7.83v-14.82a1 1 0 0 0 -1-1z"/>
            <path d="m28 38v-4h-24v1a3.009 3.009 0 0 0 3 3z"/>
            <path d="m34 38v-3a2.98 2.98 0 0 1 4-2.82v-4.18h-8v10z"/>
            <path d="m28 27a1 1 0 0 1 1-1h9a2.98 2.98 0 0 1 4-2.82v-10.18a3.009 3.009 0 0 0 -3-3h-32a3.009 3.009 0 0 0 -3 3v19h24z"/>
            <path d="m21 40h4v4h-4z"/>
            <path d="m16 47v1h14v-1a1 1 0 0 0 -1-1h-12a1 1 0 0 0 -1 1z"/>
            <path d="m7 54a1 1 0 0 0 -1 1v4a1 1 0 0 0 1 1h30v-4.82l-.44-1.18zm3 4h-2v-2h2zm4 0h-2v-2h2zm4 0h-2v-2h2zm4 0h-2v-2h2zm4 0h-2v-2h2zm4 0h-2v-2h2zm4 0h-2v-2h2z"/>
            <path d="m52 29.18a2.98 2.98 0 0 1 4 2.82v6h4v-10h-8z"/>
            <path d="m58 2h2v2h-2z"/>
            <path d="m56 4h2v2h-2z"/>
            <path d="m58 6h2v2h-2z"/>
            <path d="m60 4h2v2h-2z"/>
            <path d="m52 8h2v2h-2z"/>
            <path d="m50 10h2v2h-2z"/>
            <path d="m52 12h2v2h-2z"/>
            <path d="m54 10h2v2h-2z"/>
            <path d="m46 2h2v2h-2z"/>
            <path d="m44 4h2v2h-2z"/>
            <path d="m46 6h2v2h-2z"/>
            <path d="m48 4h2v2h-2z"/>
        </g>
    </symbol>

    <symbol id="like" viewBox="0 0 512 512" >
        <g>
            <path d="M53.333,224C23.936,224,0,247.936,0,277.333V448c0,29.397,23.936,53.333,53.333,53.333h64
                c12.011,0,23.061-4.053,32-10.795V224H53.333z"/>
        </g>
        <g>
            <path d="M512,304c0-12.821-5.077-24.768-13.888-33.579c9.963-10.901,15.04-25.515,13.653-40.725
                c-2.496-27.115-26.923-48.363-55.637-48.363H324.352c6.528-19.819,16.981-56.149,16.981-85.333c0-46.272-39.317-85.333-64-85.333
                c-22.165,0-37.995,12.48-38.677,12.992c-2.517,2.027-3.989,5.099-3.989,8.341v72.341l-61.44,133.099l-2.56,1.301v228.651
                C188.032,475.584,210.005,480,224,480h195.819c23.232,0,43.563-15.659,48.341-37.269c2.453-11.115,1.024-22.315-3.861-32.043
                c15.765-7.936,26.368-24.171,26.368-42.688c0-7.552-1.728-14.784-5.013-21.333C501.419,338.731,512,322.496,512,304z"/>
        </g>
    </symbol>

    <symbol id="bphone" viewBox="0 0 384 384">
        <g>
            <path d="M353.188,252.052c-23.51,0-46.594-3.677-68.469-10.906c-10.719-3.656-23.896-0.302-30.438,6.417l-43.177,32.594
                c-50.073-26.729-80.917-57.563-107.281-107.26l31.635-42.052c8.219-8.208,11.167-20.198,7.635-31.448
                c-7.26-21.99-10.948-45.063-10.948-68.583C132.146,13.823,118.323,0,101.333,0H30.813C13.823,0,0,13.823,0,30.813
                C0,225.563,158.438,384,353.188,384c16.99,0,30.813-13.823,30.813-30.813v-70.323C384,265.875,370.177,252.052,353.188,252.052z"
                />
	    </g>
    </symbol>
</svg>

