<svg height="512" viewBox="0 0 64 64" width="512" xmlns="http://www.w3.org/2000/svg"><g id="computer-keyboard-hand-cleaning-wipe"><path d="m53 31a1 1 0 0 0 -1 1v10h-2v-16a1 1 0 0 0 -2 0v16h-2v-19a1 1 0 0 0 -2 0v19h-2v-16a1 1 0 0 0 -2 0v16h-2v-7a1 1 0 0 0 -2 0v11.82l2.94 7.83a1.03 1.03 0 0 1 .06.35v5h12v-5a1.03 1.03 0 0 1 .06-.35l2.94-7.83v-14.82a1 1 0 0 0 -1-1z"/><path d="m28 38v-4h-24v1a3.009 3.009 0 0 0 3 3z"/><path d="m34 38v-3a2.98 2.98 0 0 1 4-2.82v-4.18h-8v10z"/><path d="m28 27a1 1 0 0 1 1-1h9a2.98 2.98 0 0 1 4-2.82v-10.18a3.009 3.009 0 0 0 -3-3h-32a3.009 3.009 0 0 0 -3 3v19h24z"/><path d="m21 40h4v4h-4z"/><path d="m16 47v1h14v-1a1 1 0 0 0 -1-1h-12a1 1 0 0 0 -1 1z"/><path d="m7 54a1 1 0 0 0 -1 1v4a1 1 0 0 0 1 1h30v-4.82l-.44-1.18zm3 4h-2v-2h2zm4 0h-2v-2h2zm4 0h-2v-2h2zm4 0h-2v-2h2zm4 0h-2v-2h2zm4 0h-2v-2h2zm4 0h-2v-2h2z"/><path d="m52 29.18a2.98 2.98 0 0 1 4 2.82v6h4v-10h-8z"/><path d="m58 2h2v2h-2z"/><path d="m56 4h2v2h-2z"/><path d="m58 6h2v2h-2z"/><path d="m60 4h2v2h-2z"/><path d="m52 8h2v2h-2z"/><path d="m50 10h2v2h-2z"/><path d="m52 12h2v2h-2z"/><path d="m54 10h2v2h-2z"/><path d="m46 2h2v2h-2z"/><path d="m44 4h2v2h-2z"/><path d="m46 6h2v2h-2z"/><path d="m48 4h2v2h-2z"/></g></svg>