<svg id="Capa_1" enable-background="new 0 0 512 512" height="512" viewBox="0 0 512 512" width="512" xmlns="http://www.w3.org/2000/svg"><g><path d="m470.382 332.749c-8.379-6.352-13.382-17.201-13.382-29.023v-95.451c0-11.822 5.003-22.672 13.382-29.024 26.449-20.051 41.618-50.565 41.618-83.717 0-40.055-22.346-76.06-58.316-93.963-4.316-2.146-9.398-2.092-13.664.152-4.267 2.242-7.194 6.398-7.871 11.171l-8.172 57.64h-33.953l-8.172-57.64c-.677-4.772-3.604-8.929-7.871-11.171-4.266-2.242-9.35-2.298-13.664-.152-35.971 17.904-58.317 53.908-58.317 93.963 0 33.152 15.169 63.666 41.618 83.717 8.379 6.352 13.382 17.201 13.382 29.023v95.451c0 11.822-5.003 22.672-13.382 29.024-26.449 20.051-41.618 50.564-41.618 83.717 0 40.055 22.346 76.06 58.316 93.963 4.315 2.145 9.397 2.091 13.664-.152 4.267-2.242 7.194-6.398 7.871-11.171l8.172-57.64h33.953l8.172 57.64c.677 4.772 3.604 8.929 7.871 11.171 2.184 1.148 4.581 1.724 6.98 1.724 2.288 0 4.578-.523 6.684-1.571 35.971-17.905 58.317-53.91 58.317-93.964 0-33.153-15.169-63.666-41.618-83.717zm-11.92 138.234-6.61-46.623c-1.049-7.396-7.381-12.895-14.852-12.895h-60c-7.471 0-13.803 5.498-14.852 12.895l-6.61 46.623c-14.86-13.927-23.538-33.439-23.538-54.517 0-23.681 10.84-45.48 29.741-59.81 15.817-11.989 25.259-31.776 25.259-52.93v-95.451c0-21.154-9.442-40.941-25.259-52.931-18.901-14.329-29.741-36.129-29.741-59.81 0-21.078 8.678-40.59 23.538-54.518l6.61 46.623c1.049 7.396 7.381 12.895 14.852 12.895h60c7.471 0 13.803-5.498 14.852-12.895l6.61-46.623c14.86 13.928 23.538 33.44 23.538 54.518 0 23.681-10.84 45.48-29.741 59.81-15.817 11.989-25.259 31.776-25.259 52.93v95.451c0 21.154 9.442 40.941 25.259 52.931 18.901 14.329 29.741 36.129 29.741 59.81 0 21.078-8.678 40.59-23.538 54.517z"/><path d="m180.427 391.361c18.089-15.599 29.573-38.657 29.573-64.361v-5h15c8.284 0 15-6.716 15-15s-6.716-15-15-15h-6.188c-6.435-40.393-38.419-72.377-78.812-78.812v-6.188c0-8.284-6.716-15-15-15s-15 6.716-15 15v6.188c-40.393 6.435-72.377 38.419-78.812 78.812h-6.188c-8.284 0-15 6.716-15 15s6.716 15 15 15h15v5c0 25.704 11.484 48.762 29.573 64.361-40.884 17.649-69.573 58.354-69.573 105.639 0 8.284 6.716 15 15 15h220c8.284 0 15-6.716 15-15 0-47.285-28.689-87.99-69.573-105.639zm-110.427-69.361h110v5c0 30.327-24.673 55-55 55s-55-24.673-55-55zm40-78.239v3.239c0 8.284 6.716 15 15 15s15-6.716 15-15v-3.239c23.815 5.648 42.607 24.423 48.253 48.239h-126.506c5.646-23.816 24.438-42.591 48.253-48.239zm-78.675 238.239c7.105-39.739 41.924-70 83.675-70h20c41.751 0 76.569 30.261 83.675 70z"/></g></svg>